<?xml version="1.0" encoding="utf-8"?>
<!-- Generator: Adobe Illustrator 26.0.2, SVG Export Plug-In . SVG Version: 6.00 Build 0)  -->
<svg version="1.1" xmlns="http://www.w3.org/2000/svg" xmlns:xlink="http://www.w3.org/1999/xlink" x="0px" y="0px"
	 viewBox="0 0 512 512" style="enable-background:new 0 0 512 512;" xml:space="preserve">
<style type="text/css">
	.st0{fill:#77AAD4;}
	.st1{fill:#1D71B8;}
	.st2{fill:#F9B233;}
	.st3{fill:#FAC15C;}
	.st4{fill:#1D1D1B;}
</style>
<g id="planet-10-Phoenix">
	<circle class="st0" cx="448.1" cy="288" r="32"/>
	<circle class="st1" cx="200" cy="256" r="168.1"/>
	<path class="st0" d="M77.9,373.6c0,0,110.7,35,242.2,0C320,373.6,210.7,487.1,77.9,373.6z"/>
	<path class="st2" d="M368.1,248c0-92.8-75.3-160.1-168.1-160.1S31.9,155.2,31.9,248C31.9,248,183.4,336.5,368.1,248"/>
	<path class="st3" d="M87.9,135.9c0,0,21.3-31.1,40-24c20.8,7.9,101.9,33.2,144.1-8c0,0,35.5,7.4,48,40
		C320,143.9,201,224.8,87.9,135.9z"/>
</g>
<g id="Phoenix">
	<path class="st4" d="M512,246c0-41.4-80.4-66.1-158.6-76C323.2,116.3,265.8,80,200,80c-79.4,0-146.6,52.8-168.5,125.2
		C10.6,217.3,0,231,0,246c0,13.6,8.8,26.2,26.2,37.5C39.4,367.5,112.3,432,200,432c74.2,0,137.8-46.2,163.6-111.3
		c18.5-2.6,35.9-5.9,51.8-9.8c7.2,10.3,19.2,17.1,32.7,17.1c22,0,39.9-17.9,39.9-39.9c0-1.9-0.1-3.8-0.4-5.7
		C503.8,271.4,512,259.2,512,246z M122.7,115.7c14.8,12.3,44,20.1,77.3,20.1c33.3,0,62.5-7.8,77.3-20.1c12.8,7.1,24.6,15.9,35,26.1
		c-17.5,15.6-59.2,26.3-104.3,26.3c-31.1,0-60.2-4.8-82-13.5c-15.3-6.1-25.6-13.8-29-21.3C104.9,126.6,113.5,120.7,122.7,115.7z
		 M261,107.8c-12.3,6.8-33.9,12.2-61,12.2c-27.1,0-48.7-5.5-61-12.2c18.8-7.8,39.4-12.1,61-12.1C221.6,95.8,242.2,100.1,261,107.8z
		 M85.2,144.3c6.3,9.6,18.2,18.2,35,24.9c23.6,9.4,54.8,14.6,87.8,14.6c50.1,0,94.1-11.8,114.9-30.5c7.9,9.4,14.7,19.8,20.3,30.9
		l0,0.3c0.1,0,0.1,0,0.2,0c8.1,16.1,13.5,33.8,15.7,52.5c-23.9,25.6-88.1,43.1-159.1,43.1c-71,0-135.2-17.6-159.1-43.1
		C45.1,201.2,61.2,168.9,85.2,144.3z M320.4,361.6c-30.8,13.3-74.5,21-120.4,21c-45.8,0-89.6-7.6-120.4-21
		c-16.9-19.3-29.3-42.6-35.5-68.4c46.5,21.6,125.1,34.6,211.9,34.6c31,0,61-1.7,89.5-4.9C339,337.1,330.5,350.1,320.4,361.6z
		 M39.7,256.9c31.8,23.8,92.5,39,160.2,39c67.7,0,128.5-15.2,160.2-39c-0.1,17.3-2.9,33.9-8.1,49.4c-30.4,3.9-62.7,5.8-96.1,5.8
		c-90.3,0-173.6-14.9-215.3-38.3C40.1,268.3,39.8,262.6,39.7,256.9z M15.7,246c0-5.8,3.7-11.9,10.5-18c-1.5,9.1-2.2,18.5-2.2,28
		c0,2,0,4,0.1,6C19.3,257.3,15.7,251.9,15.7,246z M109,387.9c27.1,6.8,58.6,10.5,90.9,10.5c32.3,0,63.8-3.7,90.9-10.5
		c-25.9,17.9-57.2,28.4-90.9,28.4S134.9,405.8,109,387.9z M448.1,312.2c-13.3,0-24.2-10.8-24.2-24.2s10.8-24.2,24.2-24.2
		s24.2,10.8,24.2,24.2S461.4,312.2,448.1,312.2z M482,267c-7-11.3-19.6-18.9-33.9-18.9c-22,0-39.9,17.9-39.9,39.9
		c0,2.8,0.3,5.5,0.8,8.2c-12.4,3-25.7,5.6-39.8,7.7c4.3-15.2,6.6-31.3,6.6-47.9c0-24.5-5-47.9-14.1-69.1
		c88.4,12.6,134.5,38.6,134.5,59.1C496.3,254.1,489.4,261.4,482,267z"/>
</g>
</svg>
