<?xml version="1.0" encoding="utf-8"?>
<!-- Generator: Adobe Illustrator 26.0.2, SVG Export Plug-In . SVG Version: 6.00 Build 0)  -->
<svg version="1.1" xmlns="http://www.w3.org/2000/svg" xmlns:xlink="http://www.w3.org/1999/xlink" x="0px" y="0px"
	 viewBox="0 0 512 512" style="enable-background:new 0 0 512 512;" xml:space="preserve">
<style type="text/css">
	.st0{fill:#FAC15C;}
	.st1{fill:#1D71B8;}
	.st2{fill:#F9B233;}
	.st3{fill:#77AAD4;}
	.st4{fill:#1D1D1B;}
</style>
<g id="planet-8-Trechihines">
	<circle class="st0" cx="256" cy="256" r="248"/>
	<path class="st1" d="M336,24c0,0-91.3,37.1-136-8c0,0-105.3,20.9-104,64c0,0,78.3,51.9,248,32c0,0,77.6-19,136,40
		C480,152,425.4,36.9,336,24z"/>
	<path class="st2" d="M504,256c0,137-111,248-248,248S8,393,8,256"/>
	<g>
		<path class="st3" d="M344,480c0,13.3-58.7,24-72,24s-72-2.7-72-16s58.7-24,72-24S344,466.7,344,480z"/>
		<path class="st3" d="M9.6,265.4c0,0-13.2,34.2,44.9,135.8c0,0,91.3-58.3,217.5-1.2s208-32,208-32s34.5-83.6,23.7-136l0,0
			c0,0-87.1,58.7-231.7,0C272,232,97.1,140.1,9.6,265.4z"/>
	</g>
</g>
<g id="Trechihines">
	<path class="st4" d="M495.5,165.1L495.5,165.1c0,0,0-0.1-0.1-0.2c-12.7-33.4-32.4-64-58.4-90C388.7,26.6,324.4,0,256,0
		S123.3,26.6,75,75C26.6,123.3,0,187.6,0,256s26.6,132.7,75,181c48.4,48.4,112.6,75,181,75s132.7-26.6,181-75
		c48.4-48.4,75-112.6,75-181C512,224.5,506.3,193.8,495.5,165.1z M456.2,123.4c-35.5-21.6-84.4-28.1-145.3-19.4
		c-73.7,10.5-129.1-0.5-162.5-11.5c-21.7-7.2-37.2-15.3-46.2-20.8c26.1-21.8,56.1-37.7,88.3-46.8c5.9,4.4,18.5,12.4,37.6,17.6
		c10.4,2.9,23.7,5.1,39.8,5.1c20.9,0,46.4-3.8,76.1-15.2c30.3,11.9,58.1,30,81.7,53.7C437.2,97.8,447.4,110.2,456.2,123.4z
		 M318.6,24.2c-38.2,10.9-66.9,8.1-85.3,3.2c-8.2-2.2-15-4.9-20.4-7.6c14.1-2.5,28.5-3.9,43.2-3.9C277.4,16,298.4,18.8,318.6,24.2z
		 M86.3,86.3c1.1-1.1,2.3-2.3,3.4-3.4c8.9,5.7,26.5,15.7,52.7,24.5c63.8,21.4,128,18.6,170.6,12.5c40-5.7,96.1-7.2,136.4,18.3
		c18.8,11.8,28.3,26.3,30.9,32.5c7.1,18.8,11.9,38.6,14.1,58.9c-8.3,6.2-25.8,15.4-51.6,20.1c-65,11.8-140.2-11.5-191.9-33
		c-43.7-18.2-83.9-26.9-119.6-26c-29,0.8-55.1,7.9-77.6,21.3c-16.9,10-29.2,22-37.6,32.4C19.1,184.6,43.7,128.9,86.3,86.3z
		 M205,490.6c6.3-3.6,14.6-7.5,24.9-10.7c37.1-11.4,76.7-6.5,108,1.8C312,491.1,284.4,496,256,496C238.6,496,221.6,494.2,205,490.6z
		 M425.7,425.7c-19.2,19.2-41,34.7-64.7,46.2C325.3,460,273,449.5,224,465c-19.6,6.2-32.7,14.7-39.7,20.2
		c-36.6-11.4-70.1-31.6-98-59.4c-7-7-13.6-14.5-19.7-22.2c22.7-10.7,101.9-40.8,202.1,3.8c33.3,14.9,63.3,20.1,89.1,20.1
		c25.5,0,46.9-5.2,63.3-11.3c8.2-3.1,15.5-6.5,22-10C437.8,413,431.9,419.5,425.7,425.7z M466.8,371l-0.5-0.5
		c-0.2,0.2-18.2,18.6-50.7,30.7c-43.8,16.3-91,13.5-140.3-8.5c-65.7-29.3-122.8-27.7-159-21.2c-29.4,5.2-50.1,14.3-59.2,18.9
		c-23.6-34.8-37.6-75.2-40.5-117.7c3.8-7.5,17.3-30.2,45.5-46.9c20.1-11.9,43.6-18.3,69.9-19c33.4-0.9,71.4,7.4,113,24.7
		c43.2,18,83.9,29.7,120.8,34.6c29.8,4,57.4,3.7,81.8-1c22.4-4.3,38.2-11.4,48.3-17.4c0.1,2.8,0.2,5.5,0.2,8.3
		C496,296.8,485.9,336.1,466.8,371z"/>
</g>
</svg>
