<?xml version="1.0" encoding="utf-8"?>
<!-- Generator: Adobe Illustrator 26.0.2, SVG Export Plug-In . SVG Version: 6.00 Build 0)  -->
<svg version="1.1" xmlns="http://www.w3.org/2000/svg" xmlns:xlink="http://www.w3.org/1999/xlink" x="0px" y="0px"
	 viewBox="0 0 481.1 481.1" style="enable-background:new 0 0 481.1 481.1;" xml:space="preserve">
<style type="text/css">
	.st0{fill:#9ED6F1;}
	.st1{fill:#3AAA35;}
	.st2{fill:#5EBAE7;}
	.st3{fill:#89CC86;}
	.st4{fill:#FFFFFF;}
	.st5{fill:#1D1D1B;}
</style>
<g id="planet-5-Mater">
	<g id="XMLID_1790_">
		<g id="XMLID_1247_">
			<circle class="st0" cx="429.7" cy="55.1" r="44.5"/>
		</g>
		<g id="XMLID_985_">
			<circle class="st1" cx="214.6" cy="262.8" r="207.7"/>
		</g>
		<g id="XMLID_713_">
			<polygon class="st2" points="21.8,248 6.9,270.6 29.2,359.2 81.1,381.5 170.1,374.1 244.3,337 318.4,322.2 370.4,329.6 
				407.5,351.8 422.3,270.2 422.3,262.8 407.5,262.8 362.9,285.1 273.9,285.1 214.6,255.4 147.9,233.1 95.9,225.7 			"/>
		</g>
		<g id="XMLID_710_">
			<polygon class="st3" points="29.2,248 6.9,248.4 29.2,159 73.7,129.3 133,114.5 222,129.3 296.2,166.4 377.8,173.8 392.6,166.4 
				422.3,233.1 422.3,262.8 385.2,270.2 311,285.1 222,255.4 170.1,233.1 110.8,225.7 			"/>
		</g>
		<g id="XMLID_711_">
			<path class="st0" d="M405.6,344.4c-31.7,74.1-105.3,126.1-191,126.1c-70.7,0-133.1-35.3-170.6-89.2l7.4-7.2l96.4,7.4l59.3-22.3
				l66.8-29.7l59.3-7.4L405.6,344.4z"/>
		</g>
		<g id="XMLID_970_">
			<rect x="192.4" y="77.4" class="st4" width="66.8" height="14.8"/>
		</g>
		<g id="XMLID_971_">
			<rect x="303.6" y="210.9" class="st4" width="89" height="14.8"/>
		</g>
		<g id="XMLID_975_">
			<rect x="266.5" y="210.9" class="st4" width="22.3" height="14.8"/>
		</g>
		<g id="XMLID_982_">
			<rect x="44" y="299.9" class="st4" width="163.2" height="14.8"/>
		</g>
		<g id="XMLID_983_">
			<rect x="222" y="396.3" class="st4" width="111.3" height="14.8"/>
		</g>
		<g id="XMLID_984_">
			<rect x="170.1" y="433.4" class="st4" width="59.3" height="14.8"/>
		</g>
		<g id="XMLID_969_">
			<path class="st5" d="M429.7,106.6c-28.4,0-51.4-23.1-51.4-51.4c0-28.4,23.1-51.4,51.4-51.4c28.4,0,51.4,23.1,51.4,51.4
				C481.1,83.5,458.1,106.6,429.7,106.6z M429.7,17.6c-20.7,0-37.6,16.9-37.6,37.6c0,20.7,16.9,37.6,37.6,37.6
				c20.7,0,37.6-16.9,37.6-37.6C467.3,34.4,450.4,17.6,429.7,17.6z"/>
		</g>
		<g id="XMLID_1253_">
			<circle class="st2" cx="414.9" cy="47.7" r="22.3"/>
		</g>
	</g>
</g>
<g id="Mater">
	<path class="st5" d="M366.4,111.1c-40.5-40.5-94.4-62.9-151.7-62.9S103.4,70.5,62.9,111.1S0,205.5,0,262.8S22.3,374,62.9,414.6
		s94.4,62.9,151.7,62.9s111.2-22.3,151.7-62.9s62.9-94.4,62.9-151.7C429.2,205.5,406.9,151.6,366.4,111.1z M48,151.2
		c0.2-0.2,23.8-16.7,60.2-25c48.4-11.1,95.5-3.3,140,23.2c38.9,23.2,75.9,30.5,107.1,30.5c14.9,0,28.5-1.7,40.3-4
		c11.2,23.2,18,48.8,19.5,75.9c-7.6,4.6-27.9,15.6-56.3,21.8c-48.6,10.6-95.9,2.5-140.6-24.1c-59.5-35.5-114.8-33-150.7-24.7
		c-23.5,5.5-41.7,13.9-52.7,19.9c3.1-34.4,14.9-66.4,33.2-93.6L48,151.2z M214.6,62.1c74.4,0,139.5,40.7,174.2,101
		c-33.9,6.1-82,5.3-133.5-25.5c-59.5-35.5-114.8-33-150.7-24.7c-13.6,3.2-25.4,7.3-35.1,11.4C106,86,157.6,62.1,214.6,62.1z
		 M13.9,261.2c7.4-4.6,28.2-16.4,57.2-23.1c48.4-11.1,95.5-3.3,140,23.2c39,23.3,76.1,30.5,107.2,30.5c16.4,0,31.1-2,43.5-4.7
		c24.1-5.3,42.7-13.7,53.6-19.5c-0.6,23.7-5.2,46.4-13.4,67.4c-17.2-7.9-42.1-16.4-72.1-18.5c-41.2-2.9-81.2,7-118.8,29.5
		c-31.8,19-65.4,28.6-99.8,28.6c0,0-0.1,0-0.1,0c-30.2,0-55.6-7.5-71.8-14c-16.2-28.9-25.5-62.3-25.5-97.8
		C13.8,262.3,13.9,261.7,13.9,261.2z M214.6,463.6c-67.3,0-126.9-33.3-163.4-84.2c16.4,4.9,36.8,9,60,9c31.7,0,68.5-7.5,106.9-30.4
		c35.2-21,72.5-30.3,110.8-27.6c28.1,2,51.5,10,67.6,17.4C364.5,416.1,295,463.6,214.6,463.6z"/>
</g>
</svg>
