<?xml version="1.0" encoding="utf-8"?>
<!-- Generator: Adobe Illustrator 26.0.2, SVG Export Plug-In . SVG Version: 6.00 Build 0)  -->
<svg version="1.1" xmlns="http://www.w3.org/2000/svg" xmlns:xlink="http://www.w3.org/1999/xlink" x="0px" y="0px"
	 viewBox="0 0 465.7 465.7" style="enable-background:new 0 0 465.7 465.7;" xml:space="preserve">
<style type="text/css">
	.st0{fill:#31C0D8;}
	.st1{fill:#C7CAC7;}
	.st2{fill:#FFD248;}
	.st3{fill:#F4661E;}
</style>
<g id="Xobriuq">
	<path class="st0" d="M232.8,398.9v59.3C108.4,458.2,7.5,357.2,7.5,232.8S108.4,7.5,232.8,7.5v59.3V138v189.8V398.9z"/>
</g>
<g id="planet-4-Xobriuq">
	<g>
		<g>
			<path class="st1" d="M232.8,7.5c124.4,0,225.3,100.9,225.3,225.3S357.2,458.2,232.8,458.2v-59.3c91.7,0,166-74.4,166-166
				s-74.4-166-166-166V7.5z"/>
			<path class="st2" d="M232.8,66.8c91.7,0,166,74.4,166,166s-74.4,166-166,166v-71.2c52.4,0,94.9-42.5,94.9-94.9
				S285.2,138,232.8,138L232.8,66.8L232.8,66.8z"/>
			<path class="st3" d="M232.8,138c52.4,0,94.9,42.5,94.9,94.9s-42.5,94.9-94.9,94.9L232.8,138L232.8,138z"/>
		</g>
		<g>
			<path d="M232.8,0C104.4,0,0,104.4,0,232.8s104.4,232.8,232.8,232.8s232.8-104.4,232.8-232.8S361.2,0,232.8,0z M240.3,145.8
				c44.7,3.8,79.9,41.4,79.9,87.1c0,45.7-35.2,83.2-79.9,87.1L240.3,145.8L240.3,145.8z M240.3,334.9c53-3.9,94.9-48.2,94.9-102.1
				s-41.9-98.2-94.9-102.1V74.5c83.9,3.9,151,73.4,151,158.4s-67.1,154.4-151,158.4V334.9z M40.6,335.2h132.9v-15H33.3
				C21.5,293.4,15,263.9,15,232.8c0-24.3,4-47.7,11.4-69.6H132v-15H32.1c32.2-76,106.3-130.1,193.2-133.1V83h-75.5v15h75.5v352.5
				C145.4,447.8,76.2,401.8,40.6,335.2z M240.3,450.5v-44.3c92.2-3.9,166-80.2,166-173.4s-73.8-169.4-166-173.4V15.1
				c116.7,4,210.3,100.1,210.3,217.7C450.7,350.4,357,446.5,240.3,450.5z"/>
			<rect x="72.7" y="207.5" width="47.4" height="15"/>
			<rect x="155.7" y="148.2" width="35.6" height="15"/>
			<rect x="161.7" y="385.4" width="35.6" height="15"/>
			<rect x="138" y="260.9" width="53.4" height="15"/>
		</g>
	</g>
</g>
</svg>
