<?xml version="1.0" encoding="utf-8"?>
<!-- Generator: Adobe Illustrator 26.0.2, SVG Export Plug-In . SVG Version: 6.00 Build 0)  -->
<svg version="1.1" xmlns="http://www.w3.org/2000/svg" xmlns:xlink="http://www.w3.org/1999/xlink" x="0px" y="0px"
	 viewBox="0 0 512 512" style="enable-background:new 0 0 512 512;" xml:space="preserve">
<style type="text/css">
	.st0{fill:#77AAD4;}
	.st1{fill:#1D71B8;}
	.st2{fill:#FFFFFF;}
	.st3{fill:#1D1D1B;}
</style>
<g id="planet-6-Kuiyama">
	<ellipse class="st0" cx="255.3" cy="256" rx="247.3" ry="248"/>
	<path id="SVGCleanerId_0" class="st1" d="M256,8c-25.4,0-49.9,3.8-73,10.9C282.7,50,355.2,144.4,355.2,256S282.7,462,183,493.1
		c23.1,7.1,47.6,10.9,73,10.9c137,0,248-111.1,248-248S393,8,256,8z"/>
	<ellipse class="st0" cx="255.3" cy="256" rx="247.3" ry="248"/>
	<g>
		<path id="SVGCleanerId_0_1_" class="st1" d="M256,8c-25.4,0-49.9,3.8-73,10.9C282.7,50,355.2,144.4,355.2,256S282.7,462,183,493.1
			c23.1,7.1,47.6,10.9,73,10.9c137,0,248-111.1,248-248S393,8,256,8z"/>
	</g>
	<g>
		<rect x="189.9" y="99.2" class="st2" width="33.1" height="15.9"/>
		<rect x="41" y="231.5" class="st2" width="66.1" height="15.9"/>
		<rect x="123.7" y="264.6" class="st2" width="57.9" height="15.9"/>
		<rect x="189.9" y="305.9" class="st2" width="49.6" height="15.9"/>
	</g>
</g>
<g id="Kuiyama">
	<path id="planet-6-Kuiyama_00000102507658621112421710000012198945162626184600_" class="st3" d="M437,75C388.7,26.6,324.4,0,256,0
		S123.3,26.6,75,75S0,187.6,0,256s26.6,132.7,75,181c48.4,48.4,112.6,75,181,75s132.7-26.6,181-75s75-112.6,75-181
		S485.4,123.3,437,75z M489.7,311.3L311.3,489.7c-10.9,2.5-22,4.3-33.2,5.4l217-217C494,289.3,492.2,300.4,489.7,311.3z M280.2,67.4
		c-4.9-4.4-9.9-8.7-15.1-12.8l34.7-34.7c7.6,1.4,15.2,3.2,22.6,5.3L280.2,67.4z M339.3,30.7c6.7,2.5,13.2,5.2,19.6,8.2l-54.2,54.2
		c-4.2-5.1-8.6-10-13.1-14.7L339.3,30.7z M373.8,46.7c5.9,3.3,11.6,6.9,17.2,10.7l-65.2,65.2c-3.5-5.7-7.2-11.3-11.2-16.7
		L373.8,46.7z M403.9,66.9c5.2,4.1,10.2,8.3,15,12.8l-76.1,76.1c-2.7-6.4-5.7-12.7-9-18.9L403.9,66.9z M362.5,237
		c-0.6-8.4-1.6-16.6-3-24.8l93.5-93.5c3.9,5.5,7.5,11.2,10.9,17L362.5,237z M363.1,258.8l108.5-108.5c3.1,6.3,6,12.8,8.5,19.4
		l-119,119C362.4,278.9,363,268.9,363.1,258.8z M356.1,316.3l129.8-129.8c2.2,7.3,4.1,14.8,5.6,22.3l-148.8,148
		C348.2,343.7,352.7,330.2,356.1,316.3z M311.6,410l182.8-181.8c1,8.7,1.5,17.5,1.6,26.3L254.5,496.1c-15.8-0.1-31.3-1.7-46.5-4.7
		C248.7,473.8,284.9,445.5,311.6,410z M443.3,105.8l-87.8,87.8c-1.8-7.3-3.9-14.4-6.4-21.5l81.2-81.2
		C434.9,95.7,439.2,100.7,443.3,105.8z M280.1,17.1l-28,28c-5.5-3.8-11.2-7.4-17.1-10.8L253.4,16c0.9,0,1.8,0,2.6,0
		C264.1,15.9,272.1,16.3,280.1,17.1z M208.1,20.7c7-1.4,14.2-2.5,21.3-3.3l-9,9C216.3,24.4,212.2,22.5,208.1,20.7z M81.7,421.1
		h124.7v-15.9H67.8C34.2,362.9,15.9,310.8,15.9,256c0-51.3,16-100.2,45.6-140.9h111.8V99.2H74.2c3.8-4.4,7.9-8.8,12.1-13
		c27.2-27.2,59.7-47,95.3-58.6c46.8,15.2,88.7,45.3,118.2,85c19.4,26,33,55,40.6,85.8H107.2v15.9h236.5c2.4,13.6,3.6,27.5,3.6,41.6
		c0,0.1,0,0.2,0,0.3h-58.2v15.9h57.6c-0.8,12.2-2.5,24.2-5.1,36l-0.1,0.1l0.1,0.1c-7.3,32.7-21.4,63.5-41.8,90.9
		c-29.6,39.6-71.5,69.7-118.3,85c-35.5-11.5-68.1-31.4-95.3-58.6C84.7,424.2,83.2,422.6,81.7,421.1z M425.8,425.8
		c-23.7,23.7-51.5,41.8-81.7,53.7L479.5,344C467.6,374.3,449.5,402.1,425.8,425.8z"/>
</g>
</svg>
