<?xml version="1.0" encoding="utf-8"?>
<!-- Generator: Adobe Illustrator 26.0.2, SVG Export Plug-In . SVG Version: 6.00 Build 0)  -->
<svg version="1.1" id="planet-1" xmlns="http://www.w3.org/2000/svg" xmlns:xlink="http://www.w3.org/1999/xlink" x="0px" y="0px"
	 viewBox="0 0 512 512" style="enable-background:new 0 0 512 512;" xml:space="preserve">
<style type="text/css">
	.st0{fill:#4A7DBA;}
	.st1{fill:#C8F4DE;}
	.st2{fill:#87DFD6;}
</style>
<g id="Layer_1">
	<path class="st0" d="M500.9,256c0,11.7-0.8,23.2-2.4,34.5c-10,70.6-50,131.5-106.8,169.4c-13.5,9-27.9,16.7-43.2,22.9
		c-28,11.4-58.6,17.8-90.7,18.1c-0.6,0-1.2,0-1.8,0c-28.3,0-55.5-4.8-80.8-13.7c-55.9-19.5-102.5-58.7-131.6-109.3
		C22.9,342,11.1,300.4,11.1,256c0-26.3,4.2-51.7,11.8-75.4c15.6-48.2,45.7-89.9,85.3-119.8c13-9.9,27-18.5,41.9-25.6
		c32-15.4,67.9-24,105.8-24c0.7,0,1.4,0,2,0c30.7,0.2,60.1,6.2,87.2,16.8C432,62,494.8,144.4,500.3,242
		C500.7,246.6,500.9,251.3,500.9,256z"/>
	<g>
		<path class="st1" d="M150.2,35.1c-14.9,7.1-28.9,15.7-41.9,25.6c-39.5,30-69.7,71.6-85.3,119.8c-7.7,23.8-11.8,49.1-11.8,75.4
			c0,44.4,11.8,86,32.5,121.9c13.2,7,26.9,13,40.8,18.1c104.8,38.1,54.8-69.6,113.4-194.5c5.5-11.7,9.1-23.3,11.2-34.7
			c0,0,3.7-10,1.4-33.2s-7.3-33.2-7.3-33.2C193,73.2,173.8,50.3,150.2,35.1z"/>
		<path class="st1" d="M500.9,256c0,11.7-0.8,23.2-2.4,34.5c-12.5,6.5-26.2,10-40.5,10c-58.8,0-106.4-59.8-106.4-133.6v-0.5
			c0.1-26-15.9-49.4-40.3-58.1c-35.2-12.6-77.5-32.6-77.5-55.1c0-15.8,9.1-30.4,24.3-42.1c30.7,0.2,60.1,6.2,87.2,16.8
			c86.9,34,149.7,116.4,155.2,214C500.7,246.6,500.9,251.3,500.9,256z"/>
	</g>
	<g>
		<path class="st2" d="M500.5,241.9c-2.6,0.2-5.3,0.2-7.9,0.1c-43.6-2.1-76.8-48.3-74.2-103v-0.4c1-19.3-10-37.2-27.8-44.6
			c-25.7-10.6-56.4-27-55.5-43.8c0.4-8.2,4-15.8,10.2-22.4C432.2,62,494.9,144.3,500.5,241.9z"/>
		<path class="st2" d="M392.6,439.4c0,6.9-0.3,13.7-0.9,20.4c-13.5,9-27.9,16.7-43.2,22.9c-28,11.4-58.6,17.8-90.7,18.1
			c-0.6,0-1.2,0-1.8,0c-28.3,0-55.5-4.8-80.8-13.7c95-142.7,71.7-196.1,121.2-196.1C349.5,291.1,392.6,357.5,392.6,439.4z"/>
	</g>
	<path class="st1" d="M351,464.6c-0.5,6.2-1.4,12.3-2.5,18.2c-28,11.4-58.6,17.8-90.7,18.1c-2.5-13.4-3.2-28.5-1.8-44.5
		c4.4-51.4,29.3-91.3,55.5-89C337.8,369.7,355.5,413.2,351,464.6z"/>
	<g>
		<path class="st2" d="M122.9,149.7c-40.2-1.6-78.2,58.7-100,30.9c15.6-48.2,45.7-89.9,85.3-119.8c3.6,3.3,7.1,7,10.3,11.1
			C140.3,99.7,147.5,150.7,122.9,149.7z"/>
		<ellipse class="st2" cx="88.5" cy="288.2" rx="33.9" ry="60.2"/>
	</g>
</g>
<g id="Otreapra">
	<path id="planet-1-Otreapra" d="M88.5,216.9c-13.3,0-25.2,8.3-33.7,23.3c-7.3,13-11.4,30.1-11.4,48s4,35,11.4,48
		c8.5,15,20.4,23.3,33.7,23.3s25.2-8.3,33.7-23.3c7.3-13,11.4-30.1,11.4-48c0-18-4-35-11.4-48C113.7,225.2,101.7,216.9,88.5,216.9z
		 M88.5,337.3c-10.8,0-22.8-21-22.8-49s12-49,22.8-49s22.8,21,22.8,49S99.3,337.3,88.5,337.3z M511.6,241.3
		c-0.4-6.2-0.9-12.4-1.7-18.5c-0.4-3.1-0.9-6.1-1.4-9.1c-0.3-1.5-0.5-3-0.8-4.5s-0.6-3-0.9-4.5s-0.6-3-1-4.5
		c-1.3-6-2.9-11.9-4.6-17.7c-0.9-2.9-1.8-5.8-2.8-8.7c-0.5-1.4-1-2.9-1.5-4.3C475,108.7,430.6,57.6,372.1,27.8
		c-7.4-3.8-15-7.2-22.8-10.3l0,0C320.2,6.2,289.6,0.3,258.2,0l0,0l0,0h-0.1l0,0c-0.7,0-1.4,0-2,0c-38.7,0-76,8.4-110.6,25.1
		c-15.4,7.4-30.2,16.4-43.8,26.8c-9.2,7-17.9,14.5-26,22.5c-2.3,2.2-4.5,4.5-6.6,6.8c-0.1,0.2-0.3,0.3-0.4,0.5
		c-16.9,18.2-31.1,38.6-42,60.9c-5.5,11.1-10.2,22.7-14,34.6l0,0C4.2,202.5,0,229.1,0,256c0,7,0.3,14,0.9,20.9
		c0.2,2.8,0.5,5.6,0.8,8.3c0.5,4.4,1.1,8.9,1.9,13.3c1.9,11.6,4.7,23,8.2,34.2c0.5,1.5,1,3.1,1.5,4.6c0.1,0.2,0.2,0.5,0.2,0.7
		c5.3,15.8,12.2,31,20.5,45.5l0,0c30.7,53.4,79.6,94,137.5,114.2C198.6,507.2,227,512,256,512c0.6,0,1.2,0,1.8,0l0,0h0.1
		c2.1,0,4.1-0.1,6.2-0.1l0,0c2-0.1,4.1-0.1,6.1-0.3c0.1,0,0.2,0,0.4,0c1.9-0.1,3.8-0.2,5.7-0.4c0.3,0,0.6-0.1,0.9-0.1
		c1.7-0.1,3.5-0.3,5.2-0.5c0.5,0,0.9-0.1,1.4-0.2c1.5-0.2,3.1-0.3,4.6-0.5c0.7-0.1,1.4-0.2,2.1-0.3c1.3-0.2,2.6-0.3,3.9-0.5
		c1-0.2,2.1-0.3,3.1-0.5s1.9-0.3,2.9-0.5c1.4-0.2,2.8-0.5,4.2-0.8c0.6-0.1,1.1-0.2,1.7-0.3c1.8-0.4,3.6-0.8,5.5-1.2
		c0.2,0,0.3-0.1,0.5-0.1c13.8-3.1,27.3-7.3,40.5-12.7c3.9-1.6,7.8-3.3,11.7-5.1c11.6-5.4,22.8-11.7,33.4-18.8
		C458.6,428.6,499.3,364,509.5,292c1.7-11.9,2.5-24,2.5-36C512,251.1,511.9,246.1,511.6,241.3z M315,97.9
		c-51.8-18.5-70.1-35.6-70.1-44.7c0-13.3,8.7-23.8,17-30.9c0.3,0,0.5,0,0.8,0c0.8,0,1.5,0.1,2.3,0.1c1,0,2,0.1,2.9,0.1
		c0.8,0,1.6,0.1,2.3,0.1c1,0.1,1.9,0.1,2.9,0.2c0.8,0.1,1.6,0.1,2.4,0.2c0.9,0.1,1.9,0.2,2.8,0.2c0.8,0.1,1.6,0.2,2.4,0.2
		c0.9,0.1,1.9,0.2,2.8,0.3c0.8,0.1,1.6,0.2,2.4,0.3c0.9,0.1,1.8,0.2,2.8,0.4c0.8,0.1,1.6,0.2,2.4,0.3c0.9,0.1,1.8,0.3,2.8,0.4
		c0.8,0.1,1.6,0.3,2.4,0.4c0.9,0.2,1.8,0.3,2.7,0.5c0.8,0.1,1.6,0.3,2.4,0.5c0.9,0.2,1.8,0.4,2.7,0.6c0.8,0.2,1.6,0.3,2.4,0.5
		c0.9,0.2,1.8,0.4,2.7,0.6c0.8,0.2,1.6,0.4,2.3,0.5c0.9,0.2,1.8,0.5,2.7,0.7c0.8,0.2,1.5,0.4,2.3,0.6c0.9,0.2,1.8,0.5,2.8,0.8
		c0.7,0.2,1.5,0.4,2.2,0.6c0.9,0.3,1.9,0.6,2.8,0.8c0.7,0.2,1.4,0.4,2.2,0.7c0.5,0.2,1.1,0.3,1.6,0.5c-2.4,5.2-3.8,10.6-4.1,16.1
		c-0.9,18.9,19.5,36.8,62.4,54.6c13.3,5.5,21.7,19.1,21,33.7v0.4v0.1c-1.4,29,6.3,56.8,21.8,78.3c15.5,21.6,37,34.4,60.6,36.2
		c0,1,0,2,0,3c0,2,0,4-0.1,6.1c0,0.4,0,0.8,0,1.2c-0.1,2-0.1,3.9-0.3,5.9c0,0.4,0,0.7-0.1,1.1c-0.1,1.9-0.2,3.8-0.4,5.7
		c0,0.1,0,0.3,0,0.5c-0.2,2-0.4,4-0.6,6c0,0.2,0,0.4-0.1,0.6c-9.7,4.2-19.9,6.3-30.3,6.3c-52.5,0-95.3-54.9-95.3-122.4v-0.4
		C362.8,135.7,343.6,108.2,315,97.9z M349.7,41.8c1,0.4,2,0.9,3,1.3c0.5,0.2,0.9,0.4,1.4,0.6c0.8,0.4,1.6,0.7,2.3,1.1
		c0.5,0.2,1,0.5,1.5,0.7c0.7,0.3,1.4,0.7,2.1,1c0.5,0.3,1.1,0.5,1.6,0.8c0.7,0.3,1.3,0.7,2,1c0.5,0.3,1.1,0.6,1.6,0.9
		c0.7,0.3,1.3,0.7,2,1c0.5,0.3,1.1,0.6,1.6,0.9c0.6,0.4,1.3,0.7,1.9,1.1c0.5,0.3,1.1,0.6,1.6,0.9c0.6,0.4,1.3,0.7,1.9,1.1
		c0.5,0.3,1.1,0.6,1.6,1c0.6,0.4,1.2,0.8,1.9,1.1c0.5,0.3,1.1,0.6,1.6,1c0.6,0.4,1.2,0.8,1.9,1.2c0.5,0.3,1,0.6,1.5,1
		c0.6,0.4,1.3,0.8,1.9,1.3c0.5,0.3,1,0.6,1.4,1c0.7,0.5,1.4,0.9,2,1.4c0.4,0.3,0.9,0.6,1.3,0.9c1,0.7,1.9,1.4,2.9,2.1
		c0.3,0.2,0.7,0.5,1,0.7c0.9,0.6,1.7,1.3,2.6,1.9c0.4,0.3,0.8,0.6,1.2,0.9c0.7,0.5,1.3,1,1.9,1.5c0.5,0.3,0.9,0.7,1.3,1.1
		c0.6,0.5,1.2,0.9,1.8,1.4c0.5,0.4,0.9,0.7,1.4,1.1c0.6,0.5,1.1,0.9,1.7,1.4c0.5,0.4,0.9,0.8,1.4,1.2c0.6,0.5,1.1,0.9,1.7,1.4
		c0.5,0.4,0.9,0.8,1.4,1.2c0.5,0.5,1.1,1,1.6,1.5c0.4,0.4,0.9,0.8,1.3,1.2c0.5,0.5,1.1,1,1.6,1.5c0.4,0.4,0.9,0.8,1.3,1.2
		c0.5,0.5,1.1,1,1.6,1.5c0.4,0.4,0.8,0.8,1.3,1.2c0.5,0.5,1.1,1.1,1.6,1.6c0.4,0.4,0.8,0.8,1.2,1.2c0.6,0.6,1.1,1.1,1.7,1.7
		c0.4,0.4,0.7,0.7,1.1,1.1c0.6,0.6,1.2,1.3,1.8,1.9c0.3,0.3,0.6,0.6,0.9,0.9c0.8,0.9,1.7,1.8,2.5,2.7c0.1,0.1,0.1,0.1,0.2,0.2
		c0.9,1,1.8,2,2.7,3c0.2,0.3,0.4,0.5,0.7,0.8c0.6,0.7,1.3,1.5,1.9,2.2c0.3,0.4,0.6,0.7,0.9,1.1c0.6,0.7,1.1,1.3,1.6,2
		c0.3,0.4,0.6,0.8,1,1.2c0.5,0.6,1,1.3,1.5,1.9c0.3,0.4,0.6,0.8,1,1.3c0.5,0.6,1,1.3,1.5,1.9c0.3,0.4,0.6,0.9,1,1.3
		c0.5,0.6,0.9,1.3,1.4,1.9c0.3,0.4,0.6,0.9,1,1.3c0.5,0.6,0.9,1.3,1.4,1.9c0.3,0.4,0.6,0.9,0.9,1.3c0.5,0.7,0.9,1.3,1.4,2
		c0.3,0.4,0.6,0.9,0.9,1.3c0.5,0.7,0.9,1.4,1.4,2.1c0.3,0.4,0.5,0.8,0.8,1.2c0.5,0.7,0.9,1.5,1.4,2.2c0.2,0.4,0.5,0.8,0.7,1.1
		c0.5,0.8,1,1.7,1.5,2.5c0.2,0.3,0.4,0.6,0.6,0.9c0.7,1.1,1.3,2.2,2,3.3c0,0,0,0.1,0.1,0.1c0.7,1.2,1.3,2.4,2,3.6
		c0.1,0.1,0.1,0.2,0.1,0.3c0.6,1.1,1.2,2.1,1.7,3.2c0.2,0.3,0.3,0.6,0.5,0.9c0.5,0.9,0.9,1.7,1.3,2.6c0.2,0.4,0.4,0.8,0.6,1.2
		c0.4,0.8,0.8,1.6,1.2,2.4c0.2,0.4,0.4,0.9,0.6,1.3c0.4,0.8,0.7,1.5,1.1,2.3c0.2,0.5,0.4,0.9,0.6,1.4c0.3,0.8,0.7,1.5,1,2.3
		c0.2,0.5,0.4,0.9,0.6,1.4c0.3,0.8,0.7,1.5,1,2.3c0.2,0.5,0.4,0.9,0.6,1.4c0.3,0.8,0.6,1.5,0.9,2.3c0.2,0.5,0.4,0.9,0.6,1.4
		c0.3,0.8,0.6,1.6,0.9,2.4c0.2,0.5,0.4,0.9,0.5,1.4c0.3,0.8,0.6,1.6,0.9,2.5c0.2,0.4,0.3,0.9,0.5,1.3c0.3,0.9,0.6,1.8,0.9,2.7
		c0.1,0.4,0.3,0.7,0.4,1.1c0.4,1.1,0.7,2.2,1.1,3.2c0.1,0.2,0.1,0.4,0.2,0.6c0.4,1.3,0.8,2.6,1.2,3.9v0.1c0.4,1.3,0.7,2.5,1.1,3.8
		c0.1,0.4,0.2,0.7,0.3,1.1c0.3,0.9,0.5,1.8,0.8,2.8c0.1,0.5,0.2,0.9,0.4,1.4c0.2,0.8,0.4,1.7,0.6,2.5c0.1,0.5,0.2,1,0.4,1.5
		c0.2,0.8,0.4,1.6,0.6,2.4c0.1,0.5,0.2,1.1,0.4,1.6c0.2,0.8,0.3,1.5,0.5,2.3c0.1,0.6,0.2,1.1,0.3,1.7c0.2,0.8,0.3,1.5,0.4,2.3
		c0.1,0.6,0.2,1.2,0.3,1.7c0.1,0.8,0.3,1.5,0.4,2.3c0.1,0.6,0.2,1.2,0.3,1.8c0.1,0.8,0.2,1.5,0.4,2.3c0.1,0.6,0.2,1.2,0.3,1.8
		c0.1,0.8,0.2,1.5,0.3,2.3c0.1,0.6,0.2,1.2,0.2,1.8c0.1,0.8,0.2,1.6,0.3,2.3c0.1,0.6,0.1,1.2,0.2,1.7c0,0.1,0,0.2,0,0.3
		c-15.8-2.2-30.3-11.6-41.2-26.7c-12.5-17.4-18.8-40.2-17.6-64.1v-0.4c1.3-24.1-12.7-46.3-34.7-55.5C354.4,67,346,54.3,346.2,50.8
		c0.2-3.2,1.1-6.3,2.8-9.3c0,0,0,0,0.1,0C349.3,41.6,349.5,41.7,349.7,41.8z M36.2,176.3c0.8-2.1,1.6-4.3,2.4-6.4
		c0.2-0.4,0.3-0.8,0.5-1.2c0.9-2.1,1.7-4.2,2.6-6.3c0.1-0.3,0.3-0.6,0.4-0.9c1-2.2,1.9-4.3,2.9-6.4c0,0,0-0.1,0.1-0.1
		c1-2.1,2.1-4.3,3.2-6.4c0.2-0.3,0.3-0.6,0.5-0.9c1-2,2.1-4,3.2-6c0.2-0.4,0.4-0.7,0.6-1.1c1.1-2,2.3-3.9,3.4-5.9
		c0.2-0.3,0.4-0.6,0.5-0.9c1.2-2,2.5-4,3.8-6c0,0,0,0,0-0.1c1.3-2,2.6-3.9,4-5.8c0.2-0.3,0.4-0.6,0.6-0.8c1.3-1.8,2.6-3.7,4-5.5
		c0.3-0.3,0.5-0.7,0.8-1c1.4-1.8,2.7-3.6,4.2-5.3c0.2-0.3,0.5-0.6,0.7-0.9c1.5-1.8,3-3.6,4.5-5.4c0.1-0.1,0.2-0.2,0.2-0.3
		c1.5-1.7,3-3.4,4.6-5.1c0.2-0.2,0.5-0.5,0.7-0.7c1.5-1.7,3.1-3.3,4.7-4.9c0.3-0.3,0.6-0.6,1-1c1.6-1.6,3.2-3.2,4.8-4.7
		c0.3-0.3,0.6-0.6,0.9-0.8c1.7-1.6,3.4-3.2,5.2-4.7c0.1-0.1,0.3-0.2,0.4-0.4c1.7-1.5,3.4-3,5.2-4.4c0.2-0.1,0.3-0.3,0.5-0.4
		c0.8,1,1.7,2,2.5,3c15.8,20.2,20.4,49.4,15.8,58.5c-0.7,1.4-1,1.4-2.2,1.3l0,0c-21.7-0.9-41.2,12.2-58.4,23.7
		c-9,6-17.4,11.7-24,13.8c-2.1,0.7-3.7,0.9-4.9,0.7C36.1,176.6,36.1,176.5,36.2,176.3z M381,453.5c-0.1,0-0.1,0.1-0.2,0.1
		c-0.5,0.3-1,0.6-1.5,0.9c-1.1,0.7-2.1,1.3-3.2,2c-0.6,0.4-1.3,0.7-1.9,1.1c-1,0.6-1.9,1.1-2.9,1.7c-0.7,0.4-1.3,0.8-2,1.1
		c-1,0.5-1.9,1.1-2.9,1.6c-0.7,0.4-1.4,0.7-2.1,1.1s-1.4,0.7-2.2,1.1c2.1-26.1-1.1-51.2-9.1-70.9c-9.1-22.4-23.5-35.6-40.6-37.1
		s-33.5,9-46.3,29.6c-11.4,18.3-18.9,43-21.2,69.6c-1,11.5-0.9,23.1,0.1,34c-1,0-1.9-0.1-2.9-0.1c-0.5,0-1.1-0.1-1.6-0.1
		c-1.2-0.1-2.3-0.2-3.5-0.3c-0.4,0-0.7-0.1-1.1-0.1c-1.5-0.1-3-0.3-4.5-0.4c-0.4,0-0.7-0.1-1.1-0.1c-1.1-0.1-2.3-0.3-3.4-0.4
		c-0.5-0.1-1.1-0.1-1.6-0.2c-1-0.1-2-0.3-3-0.4c-0.5-0.1-1.1-0.2-1.6-0.2c-1-0.2-2-0.3-3.1-0.5c-0.5-0.1-0.9-0.2-1.4-0.2
		c-1.5-0.3-3-0.5-4.4-0.8c-0.1,0-0.2,0-0.3-0.1c-1.4-0.3-2.8-0.5-4.1-0.8c-0.5-0.1-1-0.2-1.5-0.3c-1-0.2-2-0.4-3-0.7
		c-0.5-0.1-1.1-0.3-1.6-0.4c-1-0.2-1.9-0.5-2.9-0.7c-0.5-0.1-1-0.3-1.5-0.4c-1.1-0.3-2.2-0.6-3.3-0.9c-0.3-0.1-0.7-0.2-1-0.3
		c-0.1,0-0.1,0-0.2-0.1c39.6-61.7,56.9-105.9,68.5-135.8c14.4-37,18-43,35.3-43c21.8,0,42.7,13.6,58.7,38.4
		c17,26.2,26.4,61.3,26.4,98.8C381.5,444.1,381.3,448.8,381,453.5z M333,476.8c-1.2,0.4-2.5,0.9-3.7,1.3c-0.6,0.2-1.2,0.4-1.7,0.6
		c-1.1,0.3-2.1,0.7-3.2,1c-0.6,0.2-1.2,0.4-1.8,0.6c-1.1,0.3-2.1,0.6-3.2,0.9c-0.6,0.2-1.2,0.3-1.7,0.5c-1.3,0.4-2.6,0.7-4,1
		c-0.3,0.1-0.6,0.2-1,0.2c-1.6,0.4-3.3,0.8-4.9,1.2c-0.5,0.1-1,0.2-1.6,0.3c-1.1,0.2-2.3,0.5-3.4,0.7c-0.6,0.1-1.3,0.2-1.9,0.4
		c-1.1,0.2-2.1,0.4-3.2,0.6c-0.6,0.1-1.3,0.2-1.9,0.3c-1.1,0.2-2.3,0.4-3.4,0.6c-0.6,0.1-1.1,0.2-1.7,0.3c-1.7,0.2-3.3,0.5-5,0.7
		c-0.2,0-0.4,0-0.6,0.1c-1.5,0.2-3,0.4-4.5,0.5c-0.6,0.1-1.2,0.1-1.8,0.2c-1.1,0.1-2.3,0.2-3.4,0.3c-0.6,0.1-1.3,0.1-1.9,0.1
		c-1.1,0.1-2.2,0.2-3.3,0.2c-0.6,0-1.2,0.1-1.9,0.1c-0.3,0-0.6,0-0.9,0c-1.1-10.2-1.2-21.1-0.3-32.1c2-23.2,8.4-44.4,18-59.7
		c7.7-12.3,16.5-19.2,24.4-19.2c0.4,0,0.8,0,1.1,0c8.2,0.7,16.2,9.2,21.9,23.3c6.8,16.8,9.5,38.7,7.5,61.9l0,0
		c-0.3,3.7-0.8,7.4-1.3,11.1c-1.5,0.6-3,1.1-4.5,1.7C333.7,476.5,333.4,476.6,333,476.8z M403.7,437.2c-0.4-40.9-11-79.4-30-108.6
		c-20.3-31.3-47.8-48.5-77.4-48.5c-33.7,0-42.1,21.5-56,57.1c-11.6,29.8-28.9,74.2-69.6,136.5c-37.2-14.6-69.9-38.4-95.2-69.1
		c1.7,0.6,3.4,1.3,5,1.9c15.5,5.6,28.4,8.4,39.4,8.4c9.2,0,16.9-2,23.5-5.9c21.2-12.6,25.7-42.1,31.3-79.4
		c5.2-34.8,11.8-78,33-123.4c5.7-12.2,9.8-24.8,12.1-37.5c1.1-6-2.9-11.8-9-12.9c-6-1.1-11.8,2.9-12.9,9c-1.9,10.7-5.4,21.5-10.3,32
		c-22.6,48.3-29.4,93.3-34.9,129.5c-4.7,31.5-8.5,56.4-20.7,63.6c-8.2,4.9-22.6,3.5-43.9-4.3c-12.9-4.7-25.1-10-36.5-15.9
		c-0.4-0.7-0.8-1.4-1.1-2.1c-0.6-1-1.1-2.1-1.7-3.1c-0.6-1.2-1.2-2.4-1.8-3.5c-0.5-1.1-1.1-2.1-1.6-3.2c-0.6-1.2-1.1-2.4-1.7-3.6
		c-0.5-1.1-1-2.1-1.5-3.2c-0.5-1.2-1.1-2.5-1.6-3.7c-0.5-1.1-0.9-2.1-1.3-3.2c-0.5-1.2-1-2.5-1.5-3.8c-0.4-1.1-0.8-2.2-1.2-3.2
		c-0.5-1.3-0.9-2.5-1.4-3.8c-0.4-1.1-0.8-2.2-1.1-3.3c-0.4-1.3-0.8-2.6-1.2-3.9c-0.3-1.1-0.7-2.2-1-3.3c-0.4-1.3-0.8-2.6-1.1-3.9
		c-0.3-1.1-0.6-2.2-0.9-3.3c-0.3-1.3-0.7-2.7-1-4c-0.3-1.1-0.5-2.2-0.8-3.3c-0.3-1.4-0.6-2.7-0.9-4.1c-0.2-1.1-0.5-2.2-0.7-3.3
		c-0.3-1.4-0.5-2.8-0.7-4.1c-0.2-1.1-0.4-2.2-0.6-3.3c-0.2-1.4-0.4-2.8-0.6-4.2c-0.2-1.1-0.3-2.1-0.5-3.2c-0.2-1.4-0.3-2.9-0.5-4.3
		c-0.1-1-0.2-2.1-0.4-3.1c-0.1-1.5-0.3-3-0.4-4.5c-0.1-1-0.2-2-0.2-3c-0.1-1.7-0.2-3.4-0.2-5c0-0.8-0.1-1.7-0.1-2.5
		c-0.1-2.5-0.1-5-0.1-7.6c0-19.7,2.4-39.1,7.2-57.9c2.2,0.6,4.7,1,7.3,1c3.3,0,6.9-0.5,10.8-1.8c9.7-3,19.4-9.6,29.8-16.5
		c14.3-9.6,30.6-20.5,45.1-19.9c10,0.4,18.3-4.5,22.9-13.4c10.8-21.1-0.8-60.4-18-82.4c-0.7-0.9-1.4-1.8-2.2-2.7
		c0.2-0.1,0.4-0.2,0.5-0.4c1-0.6,1.9-1.3,2.9-1.9c0.6-0.4,1.2-0.8,1.8-1.2c1-0.6,1.9-1.2,2.9-1.8c0.6-0.4,1.2-0.8,1.8-1.1
		c1-0.6,2-1.2,3.1-1.8c0.6-0.3,1.1-0.7,1.7-1c1.2-0.7,2.5-1.4,3.8-2.1c0.4-0.2,0.7-0.4,1.1-0.6c1.5-0.8,3.1-1.6,4.6-2.4
		c19.7,14.1,35,33.9,43.4,56.3c2.1,5.8,8.6,8.7,14.3,6.5c5.8-2.2,8.7-8.6,6.5-14.3c-8.4-22.6-22.8-42.9-41.3-58.7
		c19.1-7.3,38.9-12.1,59.3-14.2c-5.8,9.3-8.9,19.4-8.9,29.7c0,23.7,27.8,45.1,84.9,65.6c19.8,7.1,33,26.2,32.9,47.6v0.5
		c0,38.2,11.9,74.2,33.6,101.4c22.3,27.9,52.1,43.3,83.9,43.3c8.8,0,17.5-1.2,26-3.5C472.3,358.7,444,404.2,403.7,437.2z M206.9,123
		c-5,1.7-8,6.5-7.6,11.5c0.4,4.9,4.1,9.2,9.2,10.1c0.7,0.1,1.3,0.2,1.9,0.2c5.3,0,10-3.8,10.9-9.2c0.3-1.8,0.2-3.7-0.4-5.5
		C219,124.2,212.7,121,206.9,123z"/>
</g>
</svg>
