<?xml version="1.0" encoding="utf-8"?>
<!-- Generator: Adobe Illustrator 26.0.2, SVG Export Plug-In . SVG Version: 6.00 Build 0)  -->
<svg version="1.1" id="planet-9-Amphitrite" xmlns="http://www.w3.org/2000/svg" xmlns:xlink="http://www.w3.org/1999/xlink"
	 x="0px" y="0px" viewBox="0 0 512 512" style="enable-background:new 0 0 512 512;" xml:space="preserve">
<style type="text/css">
	.st0{fill:#FF7124;}
	.st1{fill:#F2D59F;}
	.st2{fill:#8ECAC1;}
	.st3{fill:#5E2A41;}
</style>
<g id="_x32_7._Planet">
	<g id="XMLID_13_">
		<g>
			<g>
				<path class="st0" d="M361.5,183c82.7,15.6,139.8,49.1,139.8,87.9c0,38.8-57.1,72.3-139.8,87.9c-32,6.1-67.7,9.4-105.5,9.4
					c-37.8,0-73.5-3.4-105.5-9.4c-82.7-15.6-139.8-49.1-139.8-87.9c0-38.8,57.1-72.2,139.8-87.9c-12.9,15.5-22.5,33.8-27.6,54
					c-21.5,9.4-34.2,21.2-34.2,33.9c0,12.7,12.7,24.5,34.2,33.9c30.6,13.4,78.8,22,133.1,22c54.3,0,102.5-8.6,133.1-22
					c21.5-9.4,34.2-21.2,34.2-33.9c0-12.7-12.7-24.5-34.2-33.9C384,216.9,374.4,198.5,361.5,183z"/>
			</g>
			<g>
				<path class="st1" d="M400.6,69.6c0,19.3,15.6,34.9,34.9,34.9c-19.3,0-34.9,15.6-34.9,34.9c0-19.2-15.6-34.9-34.9-34.9
					C385,104.4,400.6,88.8,400.6,69.6z"/>
			</g>
			<g>
				<path class="st1" d="M389.7,417.3c0,8.9,7.2,16.1,16.1,16.1c-8.9,0-16.1,7.2-16.1,16.1c0-8.9-7.2-16.1-16.1-16.1
					C382.5,433.4,389.7,426.2,389.7,417.3z"/>
			</g>
			<g>
				<path class="st2" d="M389.1,237c2.7,10.8,4.2,22.2,4.2,33.9c0,11.7-1.5,23.1-4.2,33.9c-30.6,13.4-78.8,22-133.1,22
					c-54.3,0-102.5-8.6-133.1-22c-2.8-10.8-4.2-22.2-4.2-33.9c0-11.7,1.5-23,4.2-33.9c5.1-20.1,14.7-38.5,27.6-54
					c25.2-30.2,63.1-49.4,105.5-49.4c42.4,0,80.3,19.2,105.5,49.4C374.4,198.5,384,216.9,389.1,237z"/>
			</g>
			<g>
				<path class="st2" d="M361.5,358.8c-25.2,30.2-63.1,49.4-105.5,49.4c-42.4,0-80.3-19.2-105.5-49.4c32,6.1,67.7,9.4,105.5,9.4
					C293.8,368.2,329.5,364.8,361.5,358.8z"/>
			</g>
			<g>
				<path class="st1" d="M110.9,383.5c0,21.9,17.7,39.6,39.6,39.6c-21.9,0-39.6,17.7-39.6,39.6c0-21.9-17.7-39.6-39.6-39.6
					C93.2,423.1,110.9,405.4,110.9,383.5z"/>
			</g>
			<g>
				<path class="st1" d="M94.9,76.9c0,16.4,13.3,29.7,29.7,29.7c-16.4,0-29.7,13.3-29.7,29.7c0-16.4-13.3-29.7-29.7-29.7
					C81.6,106.7,94.9,93.3,94.9,76.9z"/>
			</g>
		</g>
	</g>
</g>
<g id="Amphitrite">
	<g>
		<g>
			<path class="st3" d="M256,418.9c-44,0-85.5-19.4-113.7-53.3c-3.8-4.6-3.2-11.3,1.4-15.1c4.6-3.8,11.3-3.2,15.1,1.4
				c24.1,28.9,59.6,45.5,97.2,45.5c37.6,0,73.1-16.6,97.2-45.5c3.8-4.6,10.6-5.2,15.1-1.4c4.6,3.8,5.2,10.6,1.4,15.1
				C341.5,399.5,300,418.9,256,418.9z"/>
		</g>
		<g>
			<path class="st3" d="M122.9,315.5c-4.8,0-9.2-3.2-10.4-8.1c-3-11.9-4.5-24.2-4.5-36.5c0-12.4,1.5-24.7,4.5-36.5
				c5.4-21.2,15.7-41.3,29.7-58.2c28.2-33.8,69.7-53.3,113.7-53.3c44,0,85.5,19.4,113.7,53.3c14.1,16.9,24.4,37,29.7,58.2
				c3,11.9,4.5,24.2,4.5,36.5c0,12.3-1.5,24.6-4.5,36.5c-1.5,5.7-7.3,9.2-13,7.8c-5.7-1.5-9.2-7.3-7.8-13
				c2.6-10.2,3.9-20.7,3.9-31.3c0-10.6-1.3-21.1-3.9-31.3c-4.6-18.1-13.4-35.3-25.4-49.7c-24.1-28.9-59.6-45.5-97.2-45.5
				c-37.7,0-73.1,16.6-97.2,45.5c-12,14.4-20.8,31.6-25.4,49.7c-2.6,10.1-3.9,20.7-3.9,31.3c0,10.6,1.3,21.1,3.9,31.3
				c1.5,5.7-2,11.6-7.8,13C124.7,315.4,123.8,315.5,122.9,315.5z"/>
		</g>
		<g>
			<path class="st3" d="M256,378.9c-37.6,0-73.8-3.2-107.5-9.6c-42.5-8-78.6-20.7-104.5-36.7c-28.8-17.7-44-39.1-44-61.8
				c0-22.7,15.2-44,44-61.7c25.9-16,62-28.6,104.5-36.7c5.8-1.1,11.4,2.7,12.5,8.5c1.1,5.8-2.7,11.4-8.5,12.5
				c-78.4,14.8-131.1,45.9-131.1,77.3c0,31.4,52.7,62.5,131.1,77.3c32.4,6.1,67.2,9.2,103.5,9.2c36.3,0,71.1-3.1,103.5-9.2
				c78.4-14.8,131.1-45.9,131.1-77.3c0-31.4-52.7-62.5-131.1-77.3c-5.8-1.1-9.6-6.7-8.5-12.5c1.1-5.8,6.7-9.6,12.5-8.5
				c42.5,8,78.6,20.7,104.5,36.7c28.8,17.7,44,39.1,44,61.7c0,22.7-15.2,44-44,61.8c-25.9,16-62,28.6-104.5,36.7
				C329.8,375.7,293.6,378.9,256,378.9z"/>
		</g>
		<g>
			<path class="st3" d="M256,337.5c-54,0-104.1-8.4-137.4-22.9C85.1,299.9,78,282.7,78,270.9c0-11.8,7-29,40.6-43.7
				c5.4-2.4,11.8,0.1,14.1,5.5c2.4,5.4-0.1,11.8-5.5,14.1c-25.8,11.3-27.8,21.3-27.8,24.1c0,7.4,10.4,16.5,27.8,24.1
				c30.2,13.2,78.3,21.1,128.7,21.1c50.4,0,98.6-7.9,128.8-21.1c17.4-7.6,27.8-16.6,27.8-24.1c0-2.8-2-12.8-27.8-24.1
				c-5.4-2.4-7.9-8.7-5.5-14.1c2.4-5.4,8.7-7.9,14.1-5.5c33.6,14.7,40.6,31.9,40.6,43.7c0,11.8-7,29-40.6,43.7
				C360.1,329.2,310,337.5,256,337.5z"/>
		</g>
		<g>
			<path class="st3" d="M389.7,457.6c-4.4,0-8-3.6-8-8c0-4.4-3.6-8-8-8c-4.4,0-8-3.6-8-8c0-4.4,3.6-8,8-8c4.4,0,8-3.6,8-8
				c0-4.4,3.6-8,8-8c4.4,0,8,3.6,8,8c0,4.4,3.6,8,8,8c4.4,0,8,3.6,8,8c0,4.4-3.6,8-8,8c-4.4,0-8,3.6-8,8
				C397.7,454,394.1,457.6,389.7,457.6z"/>
		</g>
		<path class="st3" d="M200.7,61c-6.5,0-11.8-5.3-11.8-11.8c0-4.4-3.6-8-8-8c-4.4,0-8,3.6-8,8c0,6.5-5.3,11.8-11.8,11.8
			c-4.4,0-8,3.6-8,8c0,4.4,3.6,8,8,8c6.5,0,11.8,5.3,11.8,11.8c0,4.4,3.6,8,8,8c4.4,0,8-3.6,8-8c0-6.5,5.3-11.8,11.8-11.8
			c4.4,0,8-3.6,8-8C208.7,64.6,205.1,61,200.7,61z"/>
		<g>
			<path class="st3" d="M94.9,144.4c-4.4,0-8-3.6-8-8c0-11.9-9.7-21.7-21.7-21.7c-4.4,0-8-3.6-8-8c0-4.4,3.6-8,8-8
				c11.9,0,21.7-9.7,21.7-21.7c0-4.4,3.6-8,8-8s8,3.6,8,8c0,12,9.7,21.7,21.7,21.7c4.4,0,8,3.6,8,8c0,4.4-3.6,8-8,8
				c-11.9,0-21.7,9.7-21.7,21.7C102.9,140.8,99.3,144.4,94.9,144.4z M88.4,106.7c2.4,1.9,4.6,4,6.4,6.4c1.9-2.4,4-4.6,6.4-6.4
				c-2.4-1.9-4.6-4-6.4-6.4C93,102.6,90.8,104.8,88.4,106.7z"/>
		</g>
		<g>
			<path class="st3" d="M110.9,470.8c-4.4,0-8-3.6-8-8c0-17.4-14.2-31.6-31.6-31.6c-4.4,0-8-3.6-8-8s3.6-8,8-8
				c17.4,0,31.6-14.2,31.6-31.6c0-4.4,3.6-8,8-8c4.4,0,8,3.6,8,8c0,17.4,14.2,31.6,31.6,31.6c4.4,0,8,3.6,8,8s-3.6,8-8,8
				c-17.4,0-31.6,14.2-31.6,31.6C119,467.2,115.4,470.8,110.9,470.8z M97.8,423.1c5.2,3.5,9.7,8,13.1,13.1c3.5-5.2,8-9.7,13.1-13.1
				c-5.2-3.5-9.7-8-13.1-13.1C107.4,415.1,103,419.6,97.8,423.1z"/>
		</g>
		<g>
			<path class="st3" d="M400.6,147.4c-4.4,0-8-3.6-8-8c0-14.8-12-26.8-26.8-26.8c-4.4,0-8-3.6-8-8s3.6-8,8-8
				c14.8,0,26.8-12,26.8-26.8c0-4.4,3.6-8,8-8s8,3.6,8,8c0,14.8,12,26.8,26.8,26.8c4.4,0,8,3.6,8,8s-3.6,8-8,8
				c-14.8,0-26.8,12-26.8,26.8C408.7,143.7,405.1,147.4,400.6,147.4z M390.7,104.4c3.8,2.7,7.1,6.1,9.9,9.9c2.7-3.8,6.1-7.1,9.9-9.9
				c-3.8-2.7-7.1-6.1-9.9-9.9C397.9,98.4,394.5,101.7,390.7,104.4z"/>
		</g>
	</g>
</g>
</svg>
