<?xml version="1.0" encoding="utf-8"?>
<!-- Generator: Adobe Illustrator 26.0.2, SVG Export Plug-In . SVG Version: 6.00 Build 0)  -->
<svg version="1.1" id="planet-7-Trudewei" xmlns="http://www.w3.org/2000/svg" xmlns:xlink="http://www.w3.org/1999/xlink" x="0px"
	 y="0px" viewBox="0 0 512 512" style="enable-background:new 0 0 512 512;" xml:space="preserve">
<style type="text/css">
	.st0{fill:#D46366;}
	.st1{fill:#4C1B27;}
</style>
<g id="Trudewei">
	<path class="st0" d="M430.6,90.1h-219c-17.3,0-31.4,14.1-31.4,31.4l0,0c0,17.3,14.1,31.4,31.4,31.4H470 M20.1,224.6h471.8
		c1.7,0,3.1,1.2,3.3,2.9c1.1,9.4,1.7,18.9,1.7,28.5c0,9.6-0.5,19.1-1.7,28.5c-0.2,1.7-1.6,2.9-3.3,2.9H20.1 M300.3,359.1H43.9
		c-2.6,0-4.3,2.7-3.1,5.1c10.7,21.2,24.4,40.7,40.6,57.7h219c17.3,0,31.4-14.1,31.4-31.4l0,0C331.7,373.2,317.7,359.1,300.3,359.1z"
		/>
</g>
<path class="st1" d="M470,168H211.7c-25.7,0-46.5-20.9-46.5-46.5s20.9-46.5,46.5-46.5h219c8.4,0,15.1,6.8,15.1,15.1
	s-6.8,15.1-15.1,15.1h-219c-9,0-16.3,7.3-16.3,16.3s7.3,16.3,16.3,16.3H470c8.4,0,15.1,6.8,15.1,15.1S478.3,168,470,168z"/>
<g>
	<path class="st1" d="M491.9,302.5H20.1c-8.4,0-15.1-6.8-15.1-15.1c0-8.4,6.8-15.1,15.1-15.1h461c0.4-5.3,0.6-10.7,0.6-16.2
		c0-5.4-0.2-10.8-0.6-16.3h-461c-8.4,0-15.1-6.8-15.1-15.1s6.8-15.1,15.1-15.1h471.8c9.4,0,17.3,7,18.3,16.3
		c1.2,10.1,1.8,20.3,1.8,30.3c0,10.3-0.6,20.5-1.8,30.3C509.1,295.5,501.3,302.5,491.9,302.5z"/>
	<path class="st1" d="M256,512c-70.8,0-136.8-28.3-185.6-79.6c-18.8-19.8-34.2-42.3-45.8-66.8c-11.5-24.1-19-49.8-22.5-76.3
		C0.7,278.2,0,267,0,256c0-10.9,0.7-22.2,2.1-33.4c3.5-26.5,11-52.2,22.5-76.3c11.6-24.5,27-46.9,45.8-66.7
		C119.3,28.3,185.2,0,256,0s136.7,28.3,185.6,79.6c14.1,14.8,26.3,31.3,36.5,48.9c3.2,5.5,6.4,11.6,9.3,18
		c11.4,23.9,19,49.6,22.5,76.1c1.4,11.3,2.1,22.5,2.1,33.4c0,11.4-0.7,22.6-2.2,33.3c-3.4,26.5-11,52.1-22.4,76.2
		c-2.7,5.9-5.9,11.9-9.6,18.3c-4.2,7.2-13.5,9.7-20.7,5.5c-7.2-4.2-9.7-13.5-5.5-20.7c3.3-5.7,6-10.9,8.4-16c0-0.1,0-0.1,0.1-0.2
		c10.1-21.2,16.8-43.8,19.8-67.2c1.3-9.5,1.9-19.4,1.9-29.4c0-9.7-0.6-19.6-1.9-29.5c-3.1-23.3-9.7-45.9-19.8-67.1
		c-2.6-5.7-5.4-10.9-8.2-15.7c-9-15.6-19.8-30.1-32.2-43.2C376.6,55.2,318.4,30.3,256,30.3S135.5,55.2,92.4,100.5
		C75.8,118,62.2,137.8,52,159.4c-10.1,21.2-16.7,43.8-19.8,67.2c-1.3,9.9-1.9,19.8-1.9,29.5c0,9.7,0.6,19.6,1.9,29.4
		c3,23.3,9.7,45.9,19.8,67.2c10.2,21.6,23.8,41.4,40.4,58.9c43.1,45.3,101.2,70.2,163.7,70.2c40,0,79.2-10.6,113.5-30.6
		c7.2-4.2,16.5-1.8,20.7,5.4c4.2,7.2,1.8,16.5-5.4,20.7C345.9,500,301.4,512,256,512z"/>
</g>
<path class="st1" d="M300.3,437.1h-219c-4.2,0-8.1-1.7-11-4.7C53,414,38.5,393.4,27.2,371c-2.9-5.8-2.6-12.6,0.8-18.2
	c3.4-5.5,9.3-8.8,15.9-8.8h256.5c25.7,0,46.5,20.9,46.5,46.5S326,437.1,300.3,437.1z M88,406.8h212.3c9,0,16.3-7.3,16.3-16.3
	s-7.3-16.3-16.3-16.3H63.7C70.8,385.8,78.9,396.7,88,406.8z"/>
</svg>
