<?xml version="1.0" encoding="utf-8"?>
<!-- Generator: Adobe Illustrator 26.0.2, SVG Export Plug-In . SVG Version: 6.00 Build 0)  -->
<svg version="1.1" id="planet-3" xmlns="http://www.w3.org/2000/svg" xmlns:xlink="http://www.w3.org/1999/xlink" x="0px" y="0px"
	 viewBox="0 0 512 512" style="enable-background:new 0 0 512 512;" xml:space="preserve">
<style type="text/css">
	.st0{fill:#F9B233;}
	.st1{fill:#FAC15C;}
	.st2{fill:#77AAD4;}
	.st3{fill:#1D71B8;}
	.st4{fill:#FFFFFF;}
	.st5{fill:#1D1D1B;}
</style>
<path class="st0" d="M344,48h72l-8,24l8,24c0,0-72.8,13.3-72-16C344.8,52.3,344,48,344,48z"/>
<path class="st1" d="M344,64h-88V16h66.9c11.7,0,21.1,9.5,21.1,21.1L344,64L344,64L344,64z"/>
<circle class="st2" cx="256" cy="320.2" r="184.1"/>
<g id="Cunorth">
	<path class="st3" d="M256,136.1c101.7,0,184.1,82.4,184.1,184.1S357.7,504.3,256,504.3C256,504.3,143.6,293.5,256,136.1"/>
</g>
<g>
	
		<rect x="197" y="250.1" transform="matrix(0.7071 -0.7071 0.7071 0.7071 -122.3035 220.5312)" class="st4" width="16" height="15.7"/>
	
		<rect x="175.2" y="326.5" transform="matrix(0.7071 -0.7071 0.7071 0.7071 -172.1828 252.9129)" class="st4" width="88" height="15.7"/>
	
		<rect x="337.4" y="422.7" transform="matrix(0.7071 -0.7071 0.7071 0.7071 -202.1011 373.1304)" class="st4" width="24" height="15.7"/>
</g>
<g>
	<path class="st5" d="M391.7,184.4c-34.4-34.4-79.6-54.1-127.9-56V0h-15.7v128.4c-48.3,1.9-93.5,21.6-127.9,56
		C84,220.7,64.1,268.9,64.1,320.2s20,99.5,56.2,135.7C157.7,493.3,206.9,512,256,512s98.3-18.7,135.7-56.1
		c36.2-36.3,56.2-84.4,56.2-135.7S428,220.7,391.7,184.4z M380.6,444.8c-34.4,34.4-79.5,51.5-124.6,51.5c-21.4,0-42.7-3.9-63-11.6
		l198.7-198.7L380.6,275l-203,203c-16.7-8.3-32.3-19.4-46.2-33.2c-17.9-17.9-31.5-39-40.2-61.9l102.4-102.4l-11.1-11.1l-96.8,96.8
		c-4-14.8-6-30.2-6-46c0-47.1,18.3-91.3,51.6-124.6c22.6-22.6,50.3-38.3,80.5-46.1l-63.3,63.3l11.1,11.1l79.1-79.1
		c5.7-0.6,11.4-0.8,17.2-0.8c39,0,76.1,12.6,106.6,35.9L256.1,286.3l11.1,11.1l107.5-107.5c2,1.8,4,3.7,5.9,5.6
		c33.3,33.3,51.6,77.6,51.6,124.6c0,5.8-0.3,11.5-0.8,17.2l-67.8,67.8l11.1,11.1l52-52C419,394.5,403.3,422.2,380.6,444.8z"/>
	<path class="st5" d="M336.2,80c0,13.1,10.7,23.8,23.8,23.8H427L416.3,72L427,40.2h-66.9c-4.5,0-8.2-3.7-8.2-8.2
		c0-13.1-10.7-23.8-23.8-23.8h-56v15.7h56c4.5,0,8.2,3.7,8.2,8.2v25.6c-2.5-0.9-5.3-1.4-8.2-1.4h-56v15.7h56
		C332.5,71.9,336.2,75.5,336.2,80z M351.9,54.4c2.5,0.9,5.3,1.4,8.2,1.4h45.2L399.8,72l5.4,16.2h-45.2c-4.5,0-8.2-3.7-8.2-8.2V54.4z
		"/>
</g>
</svg>
