<?xml version="1.0" encoding="utf-8"?>
<!-- Generator: Adobe Illustrator 26.0.2, SVG Export Plug-In . SVG Version: 6.00 Build 0)  -->
<svg version="1.1" id="planet-2_00000056407280601388678020000007898494708683315133_"
	 xmlns="http://www.w3.org/2000/svg" xmlns:xlink="http://www.w3.org/1999/xlink" x="0px" y="0px" viewBox="0 0 504.1 504.1"
	 style="enable-background:new 0 0 504.1 504.1;" xml:space="preserve">
<style type="text/css">
	.st0{fill:#663500;}
	.st1{fill:#A35902;}
	.st2{fill:#AD6D05;}
	.st3{fill:#FFCE00;}
	.st4{fill:#FFB600;}
	.st5{fill:#FFA300;}
</style>
<g id="Pothuter">
	<path id="_x32_" class="st0" d="M252.1,0c139.2,0,252.1,112.9,252.1,252.1s-112.9,252-252.1,252S0,391.3,0,252.1S112.9,0,252.1,0z
		 M430.3,430.3c-98.4,98.4-258,98.4-356.5,0c-98.4-98.4-98.4-258,0-356.5 M247.5,40.9c119.1,0,215.7,96.6,215.7,215.7
		s-96.6,215.7-215.7,215.7S31.8,375.8,31.8,256.6S128.4,40.9,247.5,40.9z M247.5,472.3c-119.1,0-215.7-96.6-215.7-215.7
		S128.4,40.9,247.5,40.9"/>
</g>
<g id="Layer_1">
	<circle class="st1" cx="247.5" cy="256.6" r="178.4"/>
	<path class="st2" d="M121.4,382.8c-69.7-69.7-69.7-182.6,0-252.3s182.6-69.7,252.3,0"/>
	<circle class="st3" cx="247.5" cy="256.6" r="133.6"/>
	<path id="SVGCleanerId_0" class="st1" d="M153,162.1c52.2-52.2,136.8-52.2,189,0s52.2,136.8,0,189"/>
	<g>
		<circle class="st0" cx="247.5" cy="256.6" r="133.6"/>
		<circle class="st0" cx="247.5" cy="256.6" r="133.6"/>
	</g>
	<path class="st1" d="M327.9,150c16.9,22.4,27,50.2,27,80.4c0,73.8-59.8,133.7-133.7,133.7c-30.2,0-58-10.1-80.4-27
		c24.4,32.3,63,53.3,106.6,53.3c73.8,0,133.7-59.8,133.7-133.7C381.2,213,360.2,174.4,327.9,150z"/>
	<g>
		<path id="SVGCleanerId_0_1_" class="st1" d="M153,162.1c52.2-52.2,136.8-52.2,189,0s52.2,136.8,0,189"/>
	</g>
	<path class="st2" d="M380.6,244.9c-0.1-0.7-0.1-1.3-0.2-2c-0.4-3.8-0.9-7.6-1.6-11.4c-0.1-0.5-0.2-1-0.3-1.5
		c-0.7-3.4-1.5-6.8-2.5-10.2c-0.2-0.6-0.3-1.3-0.5-1.9c-1-3.3-2.2-6.6-3.4-9.8c-0.5-1.2-1-2.5-1.5-3.7c-1.2-2.8-2.5-5.7-3.9-8.4
		c-0.8-1.6-1.7-3.2-2.6-4.7c-0.8-1.4-1.7-2.9-2.5-4.3c-1.8-2.9-3.6-5.7-5.6-8.4c-0.7-0.9-1.3-1.8-2-2.7c-2.7-3.5-5.5-6.9-8.5-10.1
		c-0.2-0.2-0.4-0.4-0.6-0.7c-5.2-5.5-10.8-10.5-16.8-15.1c16.9,22.4,27,50.2,27,80.4c0,36.9-15,70.3-39.1,94.5l26.2,26.3
		c0.2-0.2,0.3-0.4,0.5-0.6c2.9-3,5.7-6.1,8.4-9.2c1.2-1.5,2.4-3.2,3.5-4.7c1.4-1.9,2.9-3.8,4.2-5.8c1.2-1.8,2.3-3.8,3.5-5.7
		c1.1-1.9,2.3-3.7,3.3-5.6s1.9-3.9,2.8-5.8c1-2,2-4,2.8-6.1c0.8-1.8,1.4-3.7,2.1-5.6c0.8-2.2,1.7-4.5,2.4-6.7c0.6-1.8,1-3.7,1.4-5.5
		c0.6-2.4,1.3-4.8,1.8-7.2c0.4-2,0.6-4.1,0.9-6.1c0.3-2.3,0.8-4.5,1-6.8c0.3-3.4,0.4-6.8,0.5-10.3
		C381.1,254.6,381,249.7,380.6,244.9z"/>
	<path class="st3" d="M113.9,256.6c0-73.8,59.8-133.7,133.6-133.7"/>
	<g>
		<circle class="st4" cx="165.2" cy="276.7" r="15.6"/>
		<circle class="st4" cx="187.5" cy="226.1" r="1.9"/>
		<circle class="st4" cx="241.6" cy="307.4" r="11.2"/>
	</g>
	<g>
		<circle class="st0" cx="275.1" cy="185.2" r="17.5"/>
		<circle class="st0" cx="288.3" cy="243.1" r="5.4"/>
		<circle class="st0" cx="324.8" cy="228.1" r="9.7"/>
		<circle class="st0" cx="348.1" cy="272.8" r="5.8"/>
	</g>
	<g>
		<circle class="st5" cx="149" cy="79.4" r="17.7"/>
		<circle class="st5" cx="221.9" cy="64.3" r="2.6"/>
		
			<ellipse transform="matrix(0.1327 -0.9912 0.9912 0.1327 -224.4176 315.8821)" class="st5" cx="68.3" cy="286.2" rx="9.2" ry="9.2"/>
		<circle class="st5" cx="464.1" cy="263.2" r="12.5"/>
		<circle class="st5" cx="426.1" cy="370.9" r="3.3"/>
		<ellipse class="st5" cx="328.9" cy="77.1" rx="2" ry="21.7"/>
		<ellipse class="st5" cx="328.9" cy="77.1" rx="21.7" ry="2"/>
		
			<ellipse transform="matrix(0.7083 -0.7059 0.7059 0.7083 -231.6038 182.7368)" class="st5" cx="105.3" cy="371.6" rx="9" ry="0.8"/>
		
			<ellipse transform="matrix(0.7059 -0.7083 0.7083 0.7059 -232.3228 183.8933)" class="st5" cx="105.3" cy="371.7" rx="0.8" ry="9"/>
		<ellipse class="st5" cx="306.1" cy="445.2" rx="7.3" ry="0.7"/>
		<ellipse class="st5" cx="306.1" cy="445.2" rx="0.7" ry="7.3"/>
		<path class="st5" d="M411.9,237.8c-5,0-9-0.4-9-0.8c0-0.4,4-0.8,9-0.8s9,0.4,9,0.8C420.9,237.4,416.9,237.8,411.9,237.8z"/>
		<ellipse class="st5" cx="411.9" cy="237" rx="0.8" ry="9"/>
	</g>
</g>
</svg>
